/* XPM */
static char * my_raiselower_xpm[] = {
"16 16 5 1",
" 	c None",
".	c #000000000000",
"X	c #000000006E6E",
"o	c #FFFFFFFFFFFF",
"O	c #BFBFBFBFBFBF",
"                ",
"..........      ",
".XXXXXXXX.      ",
".oooooooo.      ",
".ooooo..........",
".ooooo.XXXXXXXX.",
".ooooo.OOOOOOOO.",
".oo..........OO.",
"....X.XXXXXX.OO.",
"   .oooooooo.OO.",
"   .oooooooo....",
"   .oooooooo.   ",
"   .oooooooo.   ",
"   ..........   ",
"                ",
"                "};
