/* XPM */
static char * window_raise_xpm[] = {
"16 16 5 1",
" 	c None",
".	c #000000000000",
"X	c #000000006E6E",
"o	c #BFBFBFBFBFBF",
"O	c #FFFFFFFFFFFF",
"                ",
"..........      ",
".XXXXXXXX.      ",
".oooooooo.      ",
".ooooo..........",
".ooooo.XXXXXXXX.",
".ooooo.oooooooo.",
".oo..........oo.",
"....XXXXXXXX.oo.",
"   .OOOOOOOO.oo.",
"   .OOOOOOOO....",
"   .OOOOOOOO.   ",
"   .OOOOOOOO.   ",
"   ..........   ",
"                ",
"                "};
