/* XPM */
static char * window_shade_xpm[] = {
"16 16 3 1",
" 	c None",
".	c #000000000000",
"X	c #000000006E6E",
"                ",
"                ",
" .............  ",
" .XXXXXXXXXXX.  ",
" .XXXXXXXXXXX.  ",
"                ",
" .           .  ",
"                ",
" .           .  ",
"                ",
" .           .  ",
"                ",
" . . . . . . .  ",
"                ",
"                ",
"                "};
