/* XPM */
static char * my_subpanel_xpm[] = {
"12 7 3 1",
" 	c None",
".	c #000000",
"+	c #FFFFFF",
"            ",
"     .+     ",
"    .  +    ",
"   .    +   ",
"  .      +  ",
" .+++++++++ ",
"            "};
