/* XPM */
static char * my_template_xpm[] = {
"27 34 8 1",
" 	c #BEBEBEBEBEBE",
".	c #6D6D6D6D6D6D",
"X	c #E7E7E7E7E7E7",
"o	c #000000000000",
"O	c #D3D3B6B68E8E",
"+	c #A6A675759292",
"@	c #82827D7D7D7D",
"#	c #92929696A6A6",
"                          .",
" XXXXXXXXXXXXXXXXXXXXXXX  .",
" X.....................X. .",
" X.                    X. .",
" X.                    X. .",
" X.                    X. .",
" X.                    X. .",
" X.                    X. .",
" X. ooooooooooooooooooOX. .",
" X. o+oo++++++++++oo+o@X. .",
" X. o+oo++++++++++oo+o@X. .",
" X. oooooooooooooooooo@X. .",
" X. o################o@X. .",
" X. o################o@X. .",
" X. o################o@X. .",
" X. o################o@X. .",
" X. o################o@X. .",
" X. o################o@X. .",
" X. o################o@X. .",
" X. o################o@X. .",
" X. o################o@X. .",
" X. o################o@X. .",
" X. o################o@X. .",
" X. o################o@X. .",
" X. oooooooooooooooooo@X. .",
" X.  @@@@@@@@@@@@@@@@@@X. .",
" X.                    X. .",
" X.                    X. .",
" X.                    X. .",
" X.                    X. .",
" XXXXXXXXXXXXXXXXXXXXXXX. .",
"  ....................... .",
"                          .",
"..........................."};
