#define close_width 12
#define close_height 12
static unsigned char close_bits[] = {
   0x01, 0x0c, 0x02, 0x0e, 0x04, 0x07, 0x88, 0x03, 0xd0, 0x01, 0xe0, 0x00,
   0x70, 0x00, 0xb8, 0x00, 0x1c, 0x01, 0x0e, 0x02, 0x07, 0x04, 0x03, 0x08 };
