#define close_width 5
#define close_height 6
static unsigned char close_bits[] = {
   0x04, 0x0e, 0x1f, 0x1f, 0x0e, 0x04 };
