#define iconify_width 10
#define iconify_height 10
static unsigned char iconify_bits[] = {
   0x0c, 0x00, 0x06, 0x00, 0x03, 0x00, 0x03, 0x00, 0x03, 0x00, 0x03, 0x00,
   0x03, 0x00, 0x06, 0x00, 0x0c, 0x00, 0x00, 0x00 };
