#define iconify_width 7
#define iconify_height 6
static unsigned char iconify_bits[] = {
   0x0c, 0x06, 0x03, 0x03, 0x06, 0x0c };
