#define shade_width 10
#define shade_height 10
static unsigned char shade_bits[] = {
   0x0c, 0x00, 0x0e, 0x00, 0x0f, 0x00, 0x0f, 0x00, 0x0f, 0x00, 0x0f, 0x00,
   0x0f, 0x00, 0x0e, 0x00, 0x0c, 0x00, 0x00, 0x00 };
