#define close_pressed_width 12
#define close_pressed_height 12
static unsigned char close_pressed_bits[] = {
   0xff, 0x0f, 0x07, 0x0e, 0x0f, 0x0f, 0x9d, 0x0b, 0xf9, 0x09, 0xf1, 0x08,
   0xf1, 0x08, 0xf9, 0x09, 0x9d, 0x0b, 0x0f, 0x0f, 0x07, 0x0e, 0xff, 0x0f };
