#define shade_toggled_width 12
#define shade_toggled_height 12
static unsigned char shade_toggled_bits[] = {
   0x60, 0x00, 0x60, 0x00, 0x60, 0x00, 0x60, 0x00, 0x60, 0x00, 0x63, 0x0c,
   0x67, 0x0e, 0x6e, 0x07, 0xfc, 0x03, 0xf8, 0x01, 0xf0, 0x00, 0x60, 0x00 };
