#define max_hover_width 12
#define max_hover_height 12
static unsigned char max_hover_bits[] = {
   0x60, 0x00, 0x60, 0x00, 0x60, 0x00, 0x60, 0x00, 0x60, 0x00, 0xff, 0x0f,
   0xff, 0x0f, 0x60, 0x00, 0x60, 0x00, 0x60, 0x00, 0x60, 0x00, 0x60, 0x00 };
