#define close_width 12
#define close_height 12
static unsigned char close_bits[] = {
   0x00, 0x00, 0x00, 0x00, 0x00, 0x00, 0xf8, 0x01, 0xf8, 0x01, 0xf8, 0x01,
   0xf8, 0x01, 0xf8, 0x01, 0xf8, 0x01, 0x00, 0x00, 0x00, 0x00, 0x00, 0x00 };
