#define max_pressed_width 12
#define max_pressed_height 12
static unsigned char max_pressed_bits[] = {
   0xff, 0x0f, 0x61, 0x08, 0x61, 0x08, 0x61, 0x08, 0x61, 0x08, 0xff, 0x0f,
   0xff, 0x0f, 0x61, 0x08, 0x61, 0x08, 0x61, 0x08, 0x61, 0x08, 0xff, 0x0f };
