#define bullet_width 12
#define bullet_height 12
static unsigned char bullet_bits[] = {
   0xff, 0x00, 0x81, 0x00, 0x81, 0x00, 0xf9, 0x0f, 0x09, 0x08, 0x09, 0x08,
   0x09, 0x08, 0x0f, 0x08, 0x08, 0x08, 0x08, 0x08, 0x08, 0x08, 0xf8, 0x0f };
