#define desk_pressed_width 12
#define desk_pressed_height 12
static unsigned char desk_pressed_bits[] = {
   0xff, 0x0f, 0x81, 0x09, 0x81, 0x0b, 0xc1, 0x0f, 0xed, 0x0f, 0xfd, 0x09,
   0xf9, 0x08, 0x71, 0x08, 0xe9, 0x08, 0xc5, 0x08, 0x03, 0x08, 0xff, 0x0f };
