#define max_disabled_width 12
#define max_disabled_height 12
static unsigned char max_disabled_bits[] = {
   0x60, 0x00, 0x60, 0x00, 0x60, 0x00, 0x60, 0x00, 0x60, 0x00, 0xff, 0x0f,
   0xff, 0x0f, 0x60, 0x00, 0x60, 0x00, 0x60, 0x00, 0x60, 0x00, 0x60, 0x00 };
