#define shade_disabled_width 12
#define shade_disabled_height 12
static unsigned char shade_disabled_bits[] = {
   0x60, 0x00, 0xf0, 0x00, 0xf8, 0x01, 0xfc, 0x03, 0x6e, 0x07, 0x67, 0x0e,
   0x63, 0x0c, 0x60, 0x00, 0x60, 0x00, 0x60, 0x00, 0x60, 0x00, 0x60, 0x00 };
