#define shade_pressed_width 12
#define shade_pressed_height 12
static unsigned char shade_pressed_bits[] = {
   0xff, 0x0f, 0xf1, 0x08, 0xf9, 0x09, 0xfd, 0x0b, 0x6f, 0x0f, 0x67, 0x0e,
   0x63, 0x0c, 0x61, 0x08, 0x61, 0x08, 0x61, 0x08, 0x61, 0x08, 0xff, 0x0f };
