/* XPM */
static char * shade_prelight_xpm[] = {
"24 24 24 1",
" 	c None",
".	c #DAFCE0",
"+	c #E0FFE6",
"@	c #93AA98",
"#	c #454545",
"$	c #CDEFD3",
"%	c #6E7B71",
"&	c #B4D3BA",
"*	c #525752",
"=	c #94AB99",
"-	c #CCEED3",
";	c #6F7C72",
">	c #B5D3BB",
",	c #95AC99",
"'	c #D0F5D7",
")	c #7C9381",
"!	c #BEE3C6",
"~	c #58635A",
"{	c #DFFFE5",
"]	c #A2C4A9",
"^	c #454645",
"/	c #7C9581",
"(	c #A3C4AA",
"_	c #7C9481",
".+++++++++++++++++++++++",
"@+++++++++++++++++++++++",
"#$++++++++++++++++++++++",
"#%++++++++++++++++++++++",
"##&+++++++++++++++++++++",
"##*.++++++++++++++++++++",
"###=++++++++++++++++++++",
"####-+++++++++++++++++++",
"####;+++++++++++++++++++",
"#####>++++++++++++++++++",
"#####*.+++++++++++++++++",
"######,+++++++++++++++++",
"#######'++++++++++++++++",
"#######)++++++++++++++++",
"########!+++++++++++++++",
"########~{++++++++++++++",
"#########]++++++++++++++",
"####^#####'+++++++++++++",
"##########/+++++++++++++",
"###########!++++++++++++",
"###########~{+++++++++++",
"############(+++++++++++",
"#############'++++++++++",
"#############_++++++++++"};
