/* XPM */
static char * shade_active_xpm[] = {
"24 24 26 1",
" 	c None",
".	c #A8E6B6",
"+	c #B9FEC8",
"@	c #586A5C",
"#	c #454545",
"$	c #91C29B",
"%	c #494E4A",
"&	c #B6F9C4",
"*	c #729479",
"=	c #454645",
"-	c #A7E5B5",
";	c #596B5D",
">	c #8FC099",
",	c #B5F9C3",
"'	c #729579",
")	c #A7E4B4",
"!	c #A0DAAD",
"~	c #5F7664",
"{	c #B7FBC5",
"]	c #8FC19A",
"^	c #4D564F",
"/	c #AFF0BD",
"(	c #799F81",
"_	c #A2DCAE",
":	c #607865",
"<	c #7AA082",
".+++++++++++++++++++++++",
"@+++++++++++++++++++++++",
"#$++++++++++++++++++++++",
"#%&+++++++++++++++++++++",
"##*+++++++++++++++++++++",
"##=-++++++++++++++++++++",
"###;++++++++++++++++++++",
"####>+++++++++++++++++++",
"####%,++++++++++++++++++",
"#####'++++++++++++++++++",
"#####=)+++++++++++++++++",
"######;+++++++++++++++++",
"#######!++++++++++++++++",
"#######~{+++++++++++++++",
"########]+++++++++++++++",
"########^/++++++++++++++",
"#########(++++++++++++++",
"####=#####_+++++++++++++",
"##########:{++++++++++++",
"###########]++++++++++++",
"###########^/+++++++++++",
"############<+++++++++++",
"#############_++++++++++",
"#############:{+++++++++"};
